<svg xmlns="http://www.w3.org/2000/svg" xmlns:xlink="http://www.w3.org/1999/xlink" width="260" zoomAndPan="magnify" viewBox="0 0 194.87999 74.999997" height="100" preserveAspectRatio="xMidYMid meet" version="1.0"><defs><g/><clipPath id="id1"><path d="M 4.558594 4.566406 L 48.78125 4.566406 L 48.78125 64.53125 L 4.558594 64.53125 Z M 4.558594 4.566406 " clip-rule="nonzero"/></clipPath></defs><g fill="#000000" fill-opacity="0.2"><g transform="translate(51.137795, 56.255828)"><g><path d="M 17.832031 -24.480469 L 18.148438 -24.488281 C 21.554688 -24.246094 15.078125 -13.089844 12.320312 -12.222656 C 12.1875 -12.175781 12.371094 -12 12.730469 -12.007812 C 13.175781 -12.019531 13.933594 -12.214844 14.945312 -13.042969 C 17.722656 -15.164062 20.882812 -20.203125 20.582031 -23.777344 C 20.398438 -25.925781 19.046875 -26.433594 17.210938 -26.390625 C 11.839844 -26.277344 5.664062 -19.695312 2.769531 -12.824219 C 0.214844 -6.589844 0.445312 -0.144531 5 1.371094 C 5.539062 1.492188 6.082031 1.617188 6.707031 1.601562 C 10.558594 1.519531 14.863281 -2.425781 17.261719 -5.34375 C 17.394531 -5.480469 17.785156 -5.9375 17.515625 -6.066406 C 17.425781 -6.109375 17.289062 -6.152344 17.199219 -6.148438 C 16.929688 -6.144531 16.667969 -5.867188 16.449219 -5.683594 C 14.347656 -3.3125 10.96875 -0.238281 7.746094 -0.167969 C 6.492188 -0.140625 5.449219 -0.609375 4.804688 -1.492188 C -0.0351562 -7.925781 11.699219 -24.347656 17.832031 -24.480469 Z M 17.832031 -24.480469 "/></g></g></g><g fill="#000000" fill-opacity="0.2"><g transform="translate(66.357202, 55.92703)"><g><path d="M 8.550781 -20.921875 C 8.371094 -20.917969 8.285156 -20.824219 8.066406 -20.550781 C 6.9375 -18.914062 5.484375 -15.660156 5.753906 -13.605469 C 5.804688 -13.335938 5.894531 -13.203125 5.941406 -13.207031 C 5.984375 -13.207031 6.027344 -13.296875 6.15625 -13.480469 C 7.414062 -15.386719 8.582031 -17.339844 9.886719 -19.203125 C 9.972656 -19.382812 10.234375 -19.613281 10.09375 -19.878906 C 9.90625 -20.414062 9.222656 -20.933594 8.550781 -20.921875 Z M 8.800781 -9.328125 C 8.800781 -9.328125 8.753906 -9.324219 8.714844 -9.234375 C 6.933594 -6.6875 5.105469 -4.097656 2.6875 -2.117188 C 2.375 -1.933594 2.246094 -1.839844 2.066406 -1.835938 C 2.019531 -1.835938 2.019531 -1.835938 1.976562 -1.878906 C 1.386719 -2.179688 2.628906 -4.757812 2.800781 -5.167969 C 3.65625 -6.976562 4.6875 -8.925781 5.726562 -10.558594 L 5.769531 -10.648438 C 6.246094 -11.554688 5.292969 -12.027344 4.617188 -12.328125 C 4.34375 -12.410156 4.164062 -12.496094 4.03125 -12.492188 C 3.269531 -12.476562 0.296875 -4.933594 -0.128906 -3.847656 C -0.675781 -2.269531 0.476562 -0.773438 1.730469 -0.796875 C 3.519531 -0.835938 7.046875 -5.480469 8.046875 -6.9375 C 8.390625 -7.570312 8.824219 -8.207031 9.257812 -8.84375 C 9.164062 -9.15625 9.023438 -9.332031 8.800781 -9.328125 Z M 8.800781 -9.328125 "/></g></g></g><g fill="#000000" fill-opacity="0.2"><g transform="translate(71.325822, 55.819688)"><g><path d="M 11.683594 -12.746094 C 11.226562 -13.1875 10.640625 -13.351562 10.058594 -13.339844 C 9.433594 -13.101562 2.914062 -4.050781 2.21875 -2.960938 C 2.648438 -3.820312 3.128906 -4.5 3.46875 -5.316406 C 4.667969 -7.757812 4.675781 -7.492188 5.875 -9.933594 C 6.136719 -10.386719 6.308594 -10.617188 5.941406 -11.011719 L 5.851562 -11.097656 C 5.441406 -11.492188 4.851562 -11.703125 4.316406 -11.691406 C 3.644531 -11.679688 3.332031 -11.539062 3.078125 -10.90625 C 1.449219 -7.464844 0.925781 -6.871094 -0.25 -3.265625 C -0.667969 -1.867188 -0.425781 -1.019531 0.886719 -0.421875 C 1.113281 -0.335938 1.339844 -0.207031 1.472656 -0.210938 C 1.742188 -0.214844 1.871094 -0.398438 2.042969 -0.714844 C 4.035156 -3.894531 6.300781 -6.898438 8.609375 -9.859375 C 7.707031 -8.183594 4.933594 -1.675781 8.039062 -1.070312 C 8.171875 -1.027344 8.261719 -1.03125 8.398438 -1.03125 C 10.949219 -1.085938 14.554688 -6.179688 15.859375 -8.136719 C 16.074219 -8.542969 16.335938 -8.863281 16.464844 -9.089844 C 16.367188 -9.402344 16.140625 -9.574219 16.003906 -9.570312 C 15.960938 -9.570312 15.917969 -9.523438 15.917969 -9.523438 C 15.832031 -9.390625 15.265625 -8.660156 14.613281 -7.707031 L 14.527344 -7.570312 L 14.484375 -7.523438 C 13.304688 -6.019531 11.3125 -2.976562 9.570312 -2.671875 C 7.605469 -2.402344 11.425781 -10.101562 11.894531 -11.230469 L 11.9375 -11.363281 C 12.148438 -11.90625 12.136719 -12.398438 11.683594 -12.746094 Z M 11.683594 -12.746094 "/></g></g></g><g fill="#000000" fill-opacity="0.2"><g transform="translate(83.098457, 55.565354)"><g><path d="M 2.910156 0.0273438 C 6.089844 -0.0429688 9.085938 -4.40625 10.691406 -6.726562 C 11.257812 -7.589844 11.691406 -8.269531 11.949219 -8.632812 C 11.941406 -8.992188 11.671875 -9.121094 11.492188 -9.117188 C 11.449219 -9.113281 11.402344 -9.113281 11.402344 -9.070312 C 9.667969 -6.570312 6.058594 -1.519531 2.789062 -1.449219 C 1.488281 -1.554688 1.722656 -3.171875 2.445312 -5.023438 C 2.71875 -4.671875 3.21875 -4.503906 3.753906 -4.515625 C 5.273438 -4.59375 7.0625 -6.914062 7.613281 -8.316406 L 7.609375 -8.40625 C 7.742188 -8.632812 7.78125 -8.902344 7.863281 -9.214844 C 8.101562 -10.65625 7.042969 -11.886719 5.65625 -11.855469 C 5.164062 -11.84375 4.628906 -11.699219 4.097656 -11.328125 C 1.363281 -9.433594 -1.878906 -3.988281 0.832031 -0.867188 C 1.339844 -0.207031 2.0625 0.046875 2.910156 0.0273438 Z M 6.367188 -10.078125 C 6.542969 -10.082031 6.679688 -10.042969 6.773438 -9.910156 C 6.867188 -9.6875 6.828125 -9.417969 6.746094 -9.058594 C 6.109375 -7.433594 4.132812 -5.554688 3.238281 -5.535156 C 3.015625 -5.527344 2.878906 -5.617188 2.785156 -5.835938 C 3.859375 -7.964844 5.515625 -10.0625 6.367188 -10.078125 Z M 6.367188 -10.078125 "/></g></g></g><g fill="#000000" fill-opacity="0.2"><g transform="translate(91.021452, 55.394186)"><g><path d="M 13.285156 -2.796875 L 13.28125 -2.929688 C 14.121094 -5.632812 15.230469 -8.078125 16.523438 -10.566406 C 16.992188 -11.5625 15.503906 -12.070312 14.785156 -12.097656 C 14.695312 -12.097656 14.652344 -12.09375 14.609375 -12.050781 C 13.183594 -11.660156 10.152344 -6.890625 9.242188 -5.527344 C 9.109375 -5.390625 9.070312 -5.210938 9.023438 -5.210938 C 9.023438 -5.210938 9.066406 -5.300781 9.105469 -5.527344 C 10.128906 -7.96875 11.378906 -10.277344 12.445312 -12.675781 L 12.488281 -12.765625 C 12.699219 -13.351562 12.6875 -13.84375 12.277344 -14.238281 C 11.957031 -14.546875 11.324219 -14.84375 10.832031 -14.835938 C 10.785156 -14.832031 10.652344 -14.832031 10.609375 -14.785156 C 9.988281 -14.546875 2.734375 -4.046875 1.953125 -2.820312 L 5.476562 -9.792969 C 5.691406 -10.246094 5.867188 -10.425781 5.542969 -10.867188 L 5.453125 -10.910156 C 5.039062 -11.351562 4.5 -11.519531 3.871094 -11.503906 C 3.246094 -11.492188 2.890625 -11.347656 2.632812 -10.761719 C 1.097656 -7.277344 0.75 -6.734375 -0.46875 -3.082031 C -0.679688 -2.359375 -0.839844 -1.550781 -0.332031 -0.933594 C -0.0117188 -0.582031 0.894531 -0.0625 1.386719 -0.121094 C 1.65625 -0.125 1.953125 -0.804688 2.128906 -1.03125 C 4.292969 -4.480469 6.683594 -7.890625 9.121094 -11.078125 C 8.132812 -9.222656 7.363281 -7.460938 6.820312 -5.65625 C 6.65625 -4.980469 6.492188 -4.171875 6.824219 -3.460938 C 6.964844 -3.015625 7.515625 -2.445312 8.007812 -2.414062 C 8.277344 -2.464844 8.363281 -2.597656 8.449219 -2.734375 C 9.925781 -4.960938 11.492188 -7.054688 13.058594 -9.195312 C 13.144531 -9.285156 13.1875 -9.421875 13.1875 -9.421875 C 13.230469 -9.421875 13.191406 -9.285156 13.105469 -9.152344 C 12.339844 -7.253906 11.617188 -5.355469 11.214844 -3.332031 C 11.09375 -2.65625 11.117188 -1.628906 11.84375 -1.152344 C 12.113281 -1.023438 12.339844 -0.894531 12.609375 -0.898438 C 15.25 -0.957031 19.066406 -6.726562 20.539062 -9.085938 C 20.441406 -9.398438 20.304688 -9.574219 20.125 -9.570312 C 20.082031 -9.570312 20.035156 -9.570312 19.992188 -9.480469 C 19.90625 -9.386719 19.125 -8.25 18.210938 -6.976562 C 17.6875 -6.292969 14.328125 -2.144531 13.34375 -2.125 C 13.210938 -2.121094 13.164062 -2.300781 13.285156 -2.796875 Z M 13.285156 -2.796875 "/></g></g></g><g fill="#000000" fill-opacity="0.2"><g transform="translate(107.270418, 55.043145)"><g><path d="M 8.476562 -3.675781 C 8.378906 -3.941406 8.414062 -4.390625 8.621094 -5.113281 C 8.777344 -6.191406 9.316406 -8.171875 10.199219 -8.910156 C 10.550781 -9.140625 10.503906 -9.183594 10.230469 -9.492188 C 9.769531 -10.019531 9.273438 -10.234375 8.824219 -10.222656 C 8.648438 -10.21875 8.46875 -10.171875 8.246094 -10.074219 C 8.578125 -11.382812 8.769531 -12.820312 7.761719 -13.871094 C 7.488281 -14.136719 7.078125 -14.394531 6.632812 -14.386719 C 6.136719 -14.375 5.605469 -14.09375 4.992188 -13.542969 C 2.355469 -11.292969 -2.464844 -2.1875 1.105469 -0.652344 C 1.378906 -0.523438 1.558594 -0.4375 1.828125 -0.441406 C 1.917969 -0.445312 2.003906 -0.492188 2.09375 -0.492188 C 3.292969 -1.054688 4.847656 -3.730469 6.140625 -5.953125 C 6.144531 -5.867188 6.144531 -5.820312 6.101562 -5.683594 C 5.949219 -4.472656 5.847656 -2.992188 6.761719 -2.160156 C 7.035156 -1.898438 7.351562 -1.726562 7.753906 -1.734375 C 10.171875 -1.789062 13.671875 -7.773438 14.539062 -9.09375 C 14.394531 -9.582031 14.257812 -9.578125 13.902344 -9.570312 C 13.683594 -9.253906 9.910156 -3.574219 8.746094 -3.546875 C 8.65625 -3.546875 8.566406 -3.589844 8.476562 -3.675781 Z M 6.476562 -11.246094 C 6.828125 -11.566406 7.089844 -11.796875 7.3125 -11.800781 C 7.671875 -11.808594 7.777344 -11.097656 7.628906 -9.613281 C 7.234375 -9.292969 7.019531 -8.839844 6.804688 -8.386719 C 5.199219 -6.070312 3.171875 -2.488281 2.5 -2.472656 C 1.859375 -2.996094 4.769531 -9.328125 6.476562 -11.246094 Z M 6.476562 -11.246094 "/></g></g></g><g fill="#000000" fill-opacity="0.2"><g transform="translate(117.342051, 54.825559)"><g/></g></g><g fill="#000000" fill-opacity="0.2"><g transform="translate(121.818274, 54.728855)"><g><path d="M 16.480469 -16.703125 C 16.480469 -16.613281 16.4375 -16.566406 16.4375 -16.476562 C 16.445312 -16.253906 16.671875 -15.992188 16.988281 -15.996094 C 17.972656 -16.019531 18.5625 -19.75 18.546875 -20.507812 C 18.519531 -21.71875 17.851562 -23.71875 15.699219 -23.671875 C 9.300781 -23.535156 0.292969 -9.1875 0.425781 -3.054688 C 0.472656 -0.996094 1.917969 1.792969 5.230469 1.722656 C 10.335938 1.613281 15.761719 -6.296875 16.09375 -9.664062 C 16.71875 -9.8125 17.433594 -9.828125 18.058594 -9.929688 C 18.414062 -10.027344 18.542969 -10.207031 18.539062 -10.433594 C 18.535156 -10.703125 18.246094 -11.546875 17.84375 -11.625 C 17.75 -11.667969 17.171875 -11.65625 17.035156 -11.652344 C 13.945312 -11.585938 9.015625 -9.644531 6.230469 -8.015625 C 6.011719 -7.878906 5.746094 -7.691406 5.613281 -7.554688 C 5.394531 -7.371094 5.355469 -7.101562 5.359375 -6.921875 C 5.367188 -6.609375 5.464844 -6.121094 5.867188 -6.128906 C 5.914062 -6.128906 6.046875 -6.132812 6.222656 -6.316406 C 8.121094 -7.609375 12.171875 -8.816406 14.710938 -9.363281 C 13.730469 -7.105469 8.335938 0.269531 4.980469 0.339844 C 3.234375 0.378906 2.914062 -1.945312 2.894531 -2.929688 C 2.816406 -6.464844 5.316406 -10.910156 7.359375 -13.773438 C 8.445312 -15.363281 13.328125 -21.652344 16.058594 -21.710938 C 17.042969 -21.730469 17.382812 -20.394531 17.398438 -19.769531 C 17.421875 -18.695312 16.949219 -17.699219 16.480469 -16.703125 Z M 16.480469 -16.703125 "/></g></g></g><g fill="#000000" fill-opacity="0.2"><g transform="translate(137.440551, 54.391354)"><g><path d="M 2.910156 0.0273438 C 6.089844 -0.0429688 9.085938 -4.40625 10.691406 -6.726562 C 11.257812 -7.589844 11.691406 -8.269531 11.949219 -8.632812 C 11.941406 -8.992188 11.671875 -9.121094 11.492188 -9.117188 C 11.449219 -9.113281 11.402344 -9.113281 11.402344 -9.070312 C 9.667969 -6.570312 6.058594 -1.519531 2.789062 -1.449219 C 1.488281 -1.554688 1.722656 -3.171875 2.445312 -5.023438 C 2.71875 -4.671875 3.21875 -4.503906 3.753906 -4.515625 C 5.273438 -4.59375 7.0625 -6.914062 7.613281 -8.316406 L 7.609375 -8.40625 C 7.742188 -8.632812 7.78125 -8.902344 7.863281 -9.214844 C 8.101562 -10.65625 7.042969 -11.886719 5.65625 -11.855469 C 5.164062 -11.84375 4.628906 -11.699219 4.097656 -11.328125 C 1.363281 -9.433594 -1.878906 -3.988281 0.832031 -0.867188 C 1.339844 -0.207031 2.0625 0.046875 2.910156 0.0273438 Z M 6.367188 -10.078125 C 6.542969 -10.082031 6.679688 -10.042969 6.773438 -9.910156 C 6.867188 -9.6875 6.828125 -9.417969 6.746094 -9.058594 C 6.109375 -7.433594 4.132812 -5.554688 3.238281 -5.535156 C 3.015625 -5.527344 2.878906 -5.617188 2.785156 -5.835938 C 3.859375 -7.964844 5.515625 -10.0625 6.367188 -10.078125 Z M 6.367188 -10.078125 "/></g></g></g><g fill="#000000" fill-opacity="0.2"><g transform="translate(145.363545, 54.220186)"><g><path d="M 7.574219 -14.269531 C 7.4375 -14.449219 7.207031 -14.621094 7.023438 -14.796875 C 7.628906 -15.839844 8.101562 -16.835938 8.394531 -17.691406 C 8.648438 -18.460938 8.292969 -20.46875 7.261719 -20.355469 C 5.386719 -20.179688 3.355469 -16.777344 5.640625 -14.585938 C 4.304688 -12.230469 2.800781 -9.195312 1.847656 -7.832031 C 1.804688 -7.742188 1.859375 -7.296875 2.171875 -7.300781 C 2.261719 -7.304688 2.394531 -7.351562 2.660156 -7.535156 C 3.660156 -8.855469 4.554688 -10.9375 6.417969 -13.796875 C 6.558594 -13.621094 6.695312 -13.445312 6.742188 -13.3125 C 7.816406 -11.367188 2.28125 -4.304688 2.445312 -0.902344 C 2.464844 0.125 2.996094 1.773438 4.292969 1.742188 C 4.425781 1.742188 4.515625 1.695312 4.648438 1.644531 C 6.996094 0.429688 11.832031 -7.824219 12.441406 -8.6875 C 12.527344 -8.824219 12.433594 -9.046875 12.253906 -9.132812 C 12.164062 -9.175781 12.117188 -9.21875 12.027344 -9.21875 C 11.9375 -9.214844 11.894531 -9.167969 11.761719 -9.078125 C 10.761719 -7.667969 5.785156 0.367188 4.480469 0.171875 C 5.140625 -2.441406 7.773438 -7.15625 8.363281 -8.914062 C 8.996094 -10.585938 9.480469 -13.101562 7.574219 -14.269531 Z M 7.167969 -18.472656 C 7.394531 -18.476562 7.445312 -18.210938 7.191406 -17.488281 C 7.023438 -16.902344 6.726562 -16.269531 6.421875 -15.769531 C 5.59375 -16.824219 6.765625 -18.464844 7.167969 -18.472656 Z M 7.167969 -18.472656 "/></g></g></g><g fill="#000000" fill-opacity="0.2"><g transform="translate(153.689415, 54.040315)"><g><path d="M 2.910156 0.0273438 C 6.089844 -0.0429688 9.085938 -4.40625 10.691406 -6.726562 C 11.257812 -7.589844 11.691406 -8.269531 11.949219 -8.632812 C 11.941406 -8.992188 11.671875 -9.121094 11.492188 -9.117188 C 11.449219 -9.113281 11.402344 -9.113281 11.402344 -9.070312 C 9.667969 -6.570312 6.058594 -1.519531 2.789062 -1.449219 C 1.488281 -1.554688 1.722656 -3.171875 2.445312 -5.023438 C 2.71875 -4.671875 3.21875 -4.503906 3.753906 -4.515625 C 5.273438 -4.59375 7.0625 -6.914062 7.613281 -8.316406 L 7.609375 -8.40625 C 7.742188 -8.632812 7.78125 -8.902344 7.863281 -9.214844 C 8.101562 -10.65625 7.042969 -11.886719 5.65625 -11.855469 C 5.164062 -11.84375 4.628906 -11.699219 4.097656 -11.328125 C 1.363281 -9.433594 -1.878906 -3.988281 0.832031 -0.867188 C 1.339844 -0.207031 2.0625 0.046875 2.910156 0.0273438 Z M 6.367188 -10.078125 C 6.542969 -10.082031 6.679688 -10.042969 6.773438 -9.910156 C 6.867188 -9.6875 6.828125 -9.417969 6.746094 -9.058594 C 6.109375 -7.433594 4.132812 -5.554688 3.238281 -5.535156 C 3.015625 -5.527344 2.878906 -5.617188 2.785156 -5.835938 C 3.859375 -7.964844 5.515625 -10.0625 6.367188 -10.078125 Z M 6.367188 -10.078125 "/></g></g></g><g fill="#000000" fill-opacity="0.2"><g transform="translate(161.612416, 53.869147)"><g><path d="M 11.683594 -12.746094 C 11.226562 -13.1875 10.640625 -13.351562 10.058594 -13.339844 C 9.433594 -13.101562 2.914062 -4.050781 2.21875 -2.960938 C 2.648438 -3.820312 3.128906 -4.5 3.46875 -5.316406 C 4.667969 -7.757812 4.675781 -7.492188 5.875 -9.933594 C 6.136719 -10.386719 6.308594 -10.617188 5.941406 -11.011719 L 5.851562 -11.097656 C 5.441406 -11.492188 4.851562 -11.703125 4.316406 -11.691406 C 3.644531 -11.679688 3.332031 -11.539062 3.078125 -10.90625 C 1.449219 -7.464844 0.925781 -6.871094 -0.25 -3.265625 C -0.667969 -1.867188 -0.425781 -1.019531 0.886719 -0.421875 C 1.113281 -0.335938 1.339844 -0.207031 1.472656 -0.210938 C 1.742188 -0.214844 1.871094 -0.398438 2.042969 -0.714844 C 4.035156 -3.894531 6.300781 -6.898438 8.609375 -9.859375 C 7.707031 -8.183594 4.933594 -1.675781 8.039062 -1.070312 C 8.171875 -1.027344 8.261719 -1.03125 8.398438 -1.03125 C 10.949219 -1.085938 14.554688 -6.179688 15.859375 -8.136719 C 16.074219 -8.542969 16.335938 -8.863281 16.464844 -9.089844 C 16.367188 -9.402344 16.140625 -9.574219 16.003906 -9.570312 C 15.960938 -9.570312 15.917969 -9.523438 15.917969 -9.523438 C 15.832031 -9.390625 15.265625 -8.660156 14.613281 -7.707031 L 14.527344 -7.570312 L 14.484375 -7.523438 C 13.304688 -6.019531 11.3125 -2.976562 9.570312 -2.671875 C 7.605469 -2.402344 11.425781 -10.101562 11.894531 -11.230469 L 11.9375 -11.363281 C 12.148438 -11.90625 12.136719 -12.398438 11.683594 -12.746094 Z M 11.683594 -12.746094 "/></g></g></g><g fill="#000000" fill-opacity="0.2"><g transform="translate(173.385052, 53.614813)"><g><path d="M -1.667969 -15.058594 L -1.578125 -15.058594 C 0.609375 -15.328125 2.796875 -15.601562 5.035156 -15.785156 C 2.722656 -10.851562 0.226562 -3.945312 -0.46875 -0.886719 C -0.757812 0.152344 -1.054688 2.933594 0.554688 2.945312 C 1.085938 -1.636719 5.101562 -10.636719 8.164062 -16.03125 C 10.085938 -16.160156 11.964844 -16.335938 13.796875 -16.511719 C 15 -16.671875 15.449219 -18.695312 14.511719 -18.632812 C 12.859375 -18.371094 11.074219 -18.0625 9.289062 -17.847656 C 9.894531 -18.84375 10.460938 -19.574219 10.898438 -19.984375 C 11.335938 -20.445312 10.640625 -21.59375 9.34375 -21.566406 C 9.074219 -21.558594 8.804688 -21.507812 8.449219 -21.367188 C 7.875 -21.128906 6.878906 -19.496094 5.71875 -17.277344 L -1.734375 -16.085938 C -2.226562 -15.984375 -2.117188 -15.046875 -1.667969 -15.058594 Z M -1.667969 -15.058594 "/></g></g></g><g fill="#000000" fill-opacity="0.2"><g transform="translate(177.279352, 53.530681)"><g><path d="M 6.214844 -2.507812 C 6.203125 -3.089844 5.652344 -3.703125 4.757812 -3.6875 C 3.863281 -3.667969 2.867188 -2.03125 2.878906 -1.40625 C 2.898438 -0.511719 3.445312 -0.0742188 4.386719 -0.09375 C 5.328125 -0.113281 6.238281 -1.476562 6.214844 -2.507812 Z M 6.214844 -2.507812 "/></g></g></g><g fill="#000000" fill-opacity="1"><g transform="translate(49.116552, 54.320074)"><g><path d="M 17.832031 -24.480469 L 18.148438 -24.488281 C 21.554688 -24.246094 15.078125 -13.089844 12.320312 -12.222656 C 12.1875 -12.175781 12.371094 -12 12.730469 -12.007812 C 13.175781 -12.019531 13.933594 -12.214844 14.945312 -13.042969 C 17.722656 -15.164062 20.882812 -20.203125 20.582031 -23.777344 C 20.398438 -25.925781 19.046875 -26.433594 17.210938 -26.390625 C 11.839844 -26.277344 5.664062 -19.695312 2.769531 -12.824219 C 0.214844 -6.589844 0.445312 -0.144531 5 1.371094 C 5.539062 1.492188 6.082031 1.617188 6.707031 1.601562 C 10.558594 1.519531 14.863281 -2.425781 17.261719 -5.34375 C 17.394531 -5.480469 17.785156 -5.9375 17.515625 -6.066406 C 17.425781 -6.109375 17.289062 -6.152344 17.199219 -6.148438 C 16.929688 -6.144531 16.667969 -5.867188 16.449219 -5.683594 C 14.347656 -3.3125 10.96875 -0.238281 7.746094 -0.167969 C 6.492188 -0.140625 5.449219 -0.609375 4.804688 -1.492188 C -0.0351562 -7.925781 11.699219 -24.347656 17.832031 -24.480469 Z M 17.832031 -24.480469 "/></g></g></g><g fill="#000000" fill-opacity="1"><g transform="translate(64.335959, 53.991275)"><g><path d="M 8.550781 -20.921875 C 8.371094 -20.917969 8.285156 -20.824219 8.066406 -20.550781 C 6.9375 -18.914062 5.484375 -15.660156 5.753906 -13.605469 C 5.804688 -13.335938 5.894531 -13.203125 5.941406 -13.207031 C 5.984375 -13.207031 6.027344 -13.296875 6.15625 -13.480469 C 7.414062 -15.386719 8.582031 -17.339844 9.886719 -19.203125 C 9.972656 -19.382812 10.234375 -19.613281 10.09375 -19.878906 C 9.90625 -20.414062 9.222656 -20.933594 8.550781 -20.921875 Z M 8.800781 -9.328125 C 8.800781 -9.328125 8.753906 -9.324219 8.714844 -9.234375 C 6.933594 -6.6875 5.105469 -4.097656 2.6875 -2.117188 C 2.375 -1.933594 2.246094 -1.839844 2.066406 -1.835938 C 2.019531 -1.835938 2.019531 -1.835938 1.976562 -1.878906 C 1.386719 -2.179688 2.628906 -4.757812 2.800781 -5.167969 C 3.65625 -6.976562 4.6875 -8.925781 5.726562 -10.558594 L 5.769531 -10.648438 C 6.246094 -11.554688 5.292969 -12.027344 4.617188 -12.328125 C 4.34375 -12.410156 4.164062 -12.496094 4.03125 -12.492188 C 3.269531 -12.476562 0.296875 -4.933594 -0.128906 -3.847656 C -0.675781 -2.269531 0.476562 -0.773438 1.730469 -0.796875 C 3.519531 -0.835938 7.046875 -5.480469 8.046875 -6.9375 C 8.390625 -7.570312 8.824219 -8.207031 9.257812 -8.84375 C 9.164062 -9.15625 9.023438 -9.332031 8.800781 -9.328125 Z M 8.800781 -9.328125 "/></g></g></g><g fill="#000000" fill-opacity="1"><g transform="translate(69.304578, 53.883934)"><g><path d="M 11.683594 -12.746094 C 11.226562 -13.1875 10.640625 -13.351562 10.058594 -13.339844 C 9.433594 -13.101562 2.914062 -4.050781 2.21875 -2.960938 C 2.648438 -3.820312 3.128906 -4.5 3.46875 -5.316406 C 4.667969 -7.757812 4.675781 -7.492188 5.875 -9.933594 C 6.136719 -10.386719 6.308594 -10.617188 5.941406 -11.011719 L 5.851562 -11.097656 C 5.441406 -11.492188 4.851562 -11.703125 4.316406 -11.691406 C 3.644531 -11.679688 3.332031 -11.539062 3.078125 -10.90625 C 1.449219 -7.464844 0.925781 -6.871094 -0.25 -3.265625 C -0.667969 -1.867188 -0.425781 -1.019531 0.886719 -0.421875 C 1.113281 -0.335938 1.339844 -0.207031 1.472656 -0.210938 C 1.742188 -0.214844 1.871094 -0.398438 2.042969 -0.714844 C 4.035156 -3.894531 6.300781 -6.898438 8.609375 -9.859375 C 7.707031 -8.183594 4.933594 -1.675781 8.039062 -1.070312 C 8.171875 -1.027344 8.261719 -1.03125 8.398438 -1.03125 C 10.949219 -1.085938 14.554688 -6.179688 15.859375 -8.136719 C 16.074219 -8.542969 16.335938 -8.863281 16.464844 -9.089844 C 16.367188 -9.402344 16.140625 -9.574219 16.003906 -9.570312 C 15.960938 -9.570312 15.917969 -9.523438 15.917969 -9.523438 C 15.832031 -9.390625 15.265625 -8.660156 14.613281 -7.707031 L 14.527344 -7.570312 L 14.484375 -7.523438 C 13.304688 -6.019531 11.3125 -2.976562 9.570312 -2.671875 C 7.605469 -2.402344 11.425781 -10.101562 11.894531 -11.230469 L 11.9375 -11.363281 C 12.148438 -11.90625 12.136719 -12.398438 11.683594 -12.746094 Z M 11.683594 -12.746094 "/></g></g></g><g fill="#000000" fill-opacity="1"><g transform="translate(81.077214, 53.629599)"><g><path d="M 2.910156 0.0273438 C 6.089844 -0.0429688 9.085938 -4.40625 10.691406 -6.726562 C 11.257812 -7.589844 11.691406 -8.269531 11.949219 -8.632812 C 11.941406 -8.992188 11.671875 -9.121094 11.492188 -9.117188 C 11.449219 -9.113281 11.402344 -9.113281 11.402344 -9.070312 C 9.667969 -6.570312 6.058594 -1.519531 2.789062 -1.449219 C 1.488281 -1.554688 1.722656 -3.171875 2.445312 -5.023438 C 2.71875 -4.671875 3.21875 -4.503906 3.753906 -4.515625 C 5.273438 -4.59375 7.0625 -6.914062 7.613281 -8.316406 L 7.609375 -8.40625 C 7.742188 -8.632812 7.78125 -8.902344 7.863281 -9.214844 C 8.101562 -10.65625 7.042969 -11.886719 5.65625 -11.855469 C 5.164062 -11.84375 4.628906 -11.699219 4.097656 -11.328125 C 1.363281 -9.433594 -1.878906 -3.988281 0.832031 -0.867188 C 1.339844 -0.207031 2.0625 0.046875 2.910156 0.0273438 Z M 6.367188 -10.078125 C 6.542969 -10.082031 6.679688 -10.042969 6.773438 -9.910156 C 6.867188 -9.6875 6.828125 -9.417969 6.746094 -9.058594 C 6.109375 -7.433594 4.132812 -5.554688 3.238281 -5.535156 C 3.015625 -5.527344 2.878906 -5.617188 2.785156 -5.835938 C 3.859375 -7.964844 5.515625 -10.0625 6.367188 -10.078125 Z M 6.367188 -10.078125 "/></g></g></g><g fill="#000000" fill-opacity="1"><g transform="translate(89.000209, 53.458432)"><g><path d="M 13.285156 -2.796875 L 13.28125 -2.929688 C 14.121094 -5.632812 15.230469 -8.078125 16.523438 -10.566406 C 16.992188 -11.5625 15.503906 -12.070312 14.785156 -12.097656 C 14.695312 -12.097656 14.652344 -12.09375 14.609375 -12.050781 C 13.183594 -11.660156 10.152344 -6.890625 9.242188 -5.527344 C 9.109375 -5.390625 9.070312 -5.210938 9.023438 -5.210938 C 9.023438 -5.210938 9.066406 -5.300781 9.105469 -5.527344 C 10.128906 -7.96875 11.378906 -10.277344 12.445312 -12.675781 L 12.488281 -12.765625 C 12.699219 -13.351562 12.6875 -13.84375 12.277344 -14.238281 C 11.957031 -14.546875 11.324219 -14.84375 10.832031 -14.835938 C 10.785156 -14.832031 10.652344 -14.832031 10.609375 -14.785156 C 9.988281 -14.546875 2.734375 -4.046875 1.953125 -2.820312 L 5.476562 -9.792969 C 5.691406 -10.246094 5.867188 -10.425781 5.542969 -10.867188 L 5.453125 -10.910156 C 5.039062 -11.351562 4.5 -11.519531 3.871094 -11.503906 C 3.246094 -11.492188 2.890625 -11.347656 2.632812 -10.761719 C 1.097656 -7.277344 0.75 -6.734375 -0.46875 -3.082031 C -0.679688 -2.359375 -0.839844 -1.550781 -0.332031 -0.933594 C -0.0117188 -0.582031 0.894531 -0.0625 1.386719 -0.121094 C 1.65625 -0.125 1.953125 -0.804688 2.128906 -1.03125 C 4.292969 -4.480469 6.683594 -7.890625 9.121094 -11.078125 C 8.132812 -9.222656 7.363281 -7.460938 6.820312 -5.65625 C 6.65625 -4.980469 6.492188 -4.171875 6.824219 -3.460938 C 6.964844 -3.015625 7.515625 -2.445312 8.007812 -2.414062 C 8.277344 -2.464844 8.363281 -2.597656 8.449219 -2.734375 C 9.925781 -4.960938 11.492188 -7.054688 13.058594 -9.195312 C 13.144531 -9.285156 13.1875 -9.421875 13.1875 -9.421875 C 13.230469 -9.421875 13.191406 -9.285156 13.105469 -9.152344 C 12.339844 -7.253906 11.617188 -5.355469 11.214844 -3.332031 C 11.09375 -2.65625 11.117188 -1.628906 11.84375 -1.152344 C 12.113281 -1.023438 12.339844 -0.894531 12.609375 -0.898438 C 15.25 -0.957031 19.066406 -6.726562 20.539062 -9.085938 C 20.441406 -9.398438 20.304688 -9.574219 20.125 -9.570312 C 20.082031 -9.570312 20.035156 -9.570312 19.992188 -9.480469 C 19.90625 -9.386719 19.125 -8.25 18.210938 -6.976562 C 17.6875 -6.292969 14.328125 -2.144531 13.34375 -2.125 C 13.210938 -2.121094 13.164062 -2.300781 13.285156 -2.796875 Z M 13.285156 -2.796875 "/></g></g></g><g fill="#000000" fill-opacity="1"><g transform="translate(105.249175, 53.107391)"><g><path d="M 8.476562 -3.675781 C 8.378906 -3.941406 8.414062 -4.390625 8.621094 -5.113281 C 8.777344 -6.191406 9.316406 -8.171875 10.199219 -8.910156 C 10.550781 -9.140625 10.503906 -9.183594 10.230469 -9.492188 C 9.769531 -10.019531 9.273438 -10.234375 8.824219 -10.222656 C 8.648438 -10.21875 8.46875 -10.171875 8.246094 -10.074219 C 8.578125 -11.382812 8.769531 -12.820312 7.761719 -13.871094 C 7.488281 -14.136719 7.078125 -14.394531 6.632812 -14.386719 C 6.136719 -14.375 5.605469 -14.09375 4.992188 -13.542969 C 2.355469 -11.292969 -2.464844 -2.1875 1.105469 -0.652344 C 1.378906 -0.523438 1.558594 -0.4375 1.828125 -0.441406 C 1.917969 -0.445312 2.003906 -0.492188 2.09375 -0.492188 C 3.292969 -1.054688 4.847656 -3.730469 6.140625 -5.953125 C 6.144531 -5.867188 6.144531 -5.820312 6.101562 -5.683594 C 5.949219 -4.472656 5.847656 -2.992188 6.761719 -2.160156 C 7.035156 -1.898438 7.351562 -1.726562 7.753906 -1.734375 C 10.171875 -1.789062 13.671875 -7.773438 14.539062 -9.09375 C 14.394531 -9.582031 14.257812 -9.578125 13.902344 -9.570312 C 13.683594 -9.253906 9.910156 -3.574219 8.746094 -3.546875 C 8.65625 -3.546875 8.566406 -3.589844 8.476562 -3.675781 Z M 6.476562 -11.246094 C 6.828125 -11.566406 7.089844 -11.796875 7.3125 -11.800781 C 7.671875 -11.808594 7.777344 -11.097656 7.628906 -9.613281 C 7.234375 -9.292969 7.019531 -8.839844 6.804688 -8.386719 C 5.199219 -6.070312 3.171875 -2.488281 2.5 -2.472656 C 1.859375 -2.996094 4.769531 -9.328125 6.476562 -11.246094 Z M 6.476562 -11.246094 "/></g></g></g><g fill="#000000" fill-opacity="1"><g transform="translate(115.320808, 52.889805)"><g/></g></g><g fill="#000000" fill-opacity="1"><g transform="translate(119.797031, 52.793101)"><g><path d="M 16.480469 -16.703125 C 16.480469 -16.613281 16.4375 -16.566406 16.4375 -16.476562 C 16.445312 -16.253906 16.671875 -15.992188 16.988281 -15.996094 C 17.972656 -16.019531 18.5625 -19.75 18.546875 -20.507812 C 18.519531 -21.71875 17.851562 -23.71875 15.699219 -23.671875 C 9.300781 -23.535156 0.292969 -9.1875 0.425781 -3.054688 C 0.472656 -0.996094 1.917969 1.792969 5.230469 1.722656 C 10.335938 1.613281 15.761719 -6.296875 16.09375 -9.664062 C 16.71875 -9.8125 17.433594 -9.828125 18.058594 -9.929688 C 18.414062 -10.027344 18.542969 -10.207031 18.539062 -10.433594 C 18.535156 -10.703125 18.246094 -11.546875 17.84375 -11.625 C 17.75 -11.667969 17.171875 -11.65625 17.035156 -11.652344 C 13.945312 -11.585938 9.015625 -9.644531 6.230469 -8.015625 C 6.011719 -7.878906 5.746094 -7.691406 5.613281 -7.554688 C 5.394531 -7.371094 5.355469 -7.101562 5.359375 -6.921875 C 5.367188 -6.609375 5.464844 -6.121094 5.867188 -6.128906 C 5.914062 -6.128906 6.046875 -6.132812 6.222656 -6.316406 C 8.121094 -7.609375 12.171875 -8.816406 14.710938 -9.363281 C 13.730469 -7.105469 8.335938 0.269531 4.980469 0.339844 C 3.234375 0.378906 2.914062 -1.945312 2.894531 -2.929688 C 2.816406 -6.464844 5.316406 -10.910156 7.359375 -13.773438 C 8.445312 -15.363281 13.328125 -21.652344 16.058594 -21.710938 C 17.042969 -21.730469 17.382812 -20.394531 17.398438 -19.769531 C 17.421875 -18.695312 16.949219 -17.699219 16.480469 -16.703125 Z M 16.480469 -16.703125 "/></g></g></g><g fill="#000000" fill-opacity="1"><g transform="translate(135.419307, 52.455599)"><g><path d="M 2.910156 0.0273438 C 6.089844 -0.0429688 9.085938 -4.40625 10.691406 -6.726562 C 11.257812 -7.589844 11.691406 -8.269531 11.949219 -8.632812 C 11.941406 -8.992188 11.671875 -9.121094 11.492188 -9.117188 C 11.449219 -9.113281 11.402344 -9.113281 11.402344 -9.070312 C 9.667969 -6.570312 6.058594 -1.519531 2.789062 -1.449219 C 1.488281 -1.554688 1.722656 -3.171875 2.445312 -5.023438 C 2.71875 -4.671875 3.21875 -4.503906 3.753906 -4.515625 C 5.273438 -4.59375 7.0625 -6.914062 7.613281 -8.316406 L 7.609375 -8.40625 C 7.742188 -8.632812 7.78125 -8.902344 7.863281 -9.214844 C 8.101562 -10.65625 7.042969 -11.886719 5.65625 -11.855469 C 5.164062 -11.84375 4.628906 -11.699219 4.097656 -11.328125 C 1.363281 -9.433594 -1.878906 -3.988281 0.832031 -0.867188 C 1.339844 -0.207031 2.0625 0.046875 2.910156 0.0273438 Z M 6.367188 -10.078125 C 6.542969 -10.082031 6.679688 -10.042969 6.773438 -9.910156 C 6.867188 -9.6875 6.828125 -9.417969 6.746094 -9.058594 C 6.109375 -7.433594 4.132812 -5.554688 3.238281 -5.535156 C 3.015625 -5.527344 2.878906 -5.617188 2.785156 -5.835938 C 3.859375 -7.964844 5.515625 -10.0625 6.367188 -10.078125 Z M 6.367188 -10.078125 "/></g></g></g><g fill="#000000" fill-opacity="1"><g transform="translate(143.342302, 52.284432)"><g><path d="M 7.574219 -14.269531 C 7.4375 -14.449219 7.207031 -14.621094 7.023438 -14.796875 C 7.628906 -15.839844 8.101562 -16.835938 8.394531 -17.691406 C 8.648438 -18.460938 8.292969 -20.46875 7.261719 -20.355469 C 5.386719 -20.179688 3.355469 -16.777344 5.640625 -14.585938 C 4.304688 -12.230469 2.800781 -9.195312 1.847656 -7.832031 C 1.804688 -7.742188 1.859375 -7.296875 2.171875 -7.300781 C 2.261719 -7.304688 2.394531 -7.351562 2.660156 -7.535156 C 3.660156 -8.855469 4.554688 -10.9375 6.417969 -13.796875 C 6.558594 -13.621094 6.695312 -13.445312 6.742188 -13.3125 C 7.816406 -11.367188 2.28125 -4.304688 2.445312 -0.902344 C 2.464844 0.125 2.996094 1.773438 4.292969 1.742188 C 4.425781 1.742188 4.515625 1.695312 4.648438 1.644531 C 6.996094 0.429688 11.832031 -7.824219 12.441406 -8.6875 C 12.527344 -8.824219 12.433594 -9.046875 12.253906 -9.132812 C 12.164062 -9.175781 12.117188 -9.21875 12.027344 -9.21875 C 11.9375 -9.214844 11.894531 -9.167969 11.761719 -9.078125 C 10.761719 -7.667969 5.785156 0.367188 4.480469 0.171875 C 5.140625 -2.441406 7.773438 -7.15625 8.363281 -8.914062 C 8.996094 -10.585938 9.480469 -13.101562 7.574219 -14.269531 Z M 7.167969 -18.472656 C 7.394531 -18.476562 7.445312 -18.210938 7.191406 -17.488281 C 7.023438 -16.902344 6.726562 -16.269531 6.421875 -15.769531 C 5.59375 -16.824219 6.765625 -18.464844 7.167969 -18.472656 Z M 7.167969 -18.472656 "/></g></g></g><g fill="#000000" fill-opacity="1"><g transform="translate(151.668172, 52.104561)"><g><path d="M 2.910156 0.0273438 C 6.089844 -0.0429688 9.085938 -4.40625 10.691406 -6.726562 C 11.257812 -7.589844 11.691406 -8.269531 11.949219 -8.632812 C 11.941406 -8.992188 11.671875 -9.121094 11.492188 -9.117188 C 11.449219 -9.113281 11.402344 -9.113281 11.402344 -9.070312 C 9.667969 -6.570312 6.058594 -1.519531 2.789062 -1.449219 C 1.488281 -1.554688 1.722656 -3.171875 2.445312 -5.023438 C 2.71875 -4.671875 3.21875 -4.503906 3.753906 -4.515625 C 5.273438 -4.59375 7.0625 -6.914062 7.613281 -8.316406 L 7.609375 -8.40625 C 7.742188 -8.632812 7.78125 -8.902344 7.863281 -9.214844 C 8.101562 -10.65625 7.042969 -11.886719 5.65625 -11.855469 C 5.164062 -11.84375 4.628906 -11.699219 4.097656 -11.328125 C 1.363281 -9.433594 -1.878906 -3.988281 0.832031 -0.867188 C 1.339844 -0.207031 2.0625 0.046875 2.910156 0.0273438 Z M 6.367188 -10.078125 C 6.542969 -10.082031 6.679688 -10.042969 6.773438 -9.910156 C 6.867188 -9.6875 6.828125 -9.417969 6.746094 -9.058594 C 6.109375 -7.433594 4.132812 -5.554688 3.238281 -5.535156 C 3.015625 -5.527344 2.878906 -5.617188 2.785156 -5.835938 C 3.859375 -7.964844 5.515625 -10.0625 6.367188 -10.078125 Z M 6.367188 -10.078125 "/></g></g></g><g fill="#000000" fill-opacity="1"><g transform="translate(159.591173, 51.933393)"><g><path d="M 11.683594 -12.746094 C 11.226562 -13.1875 10.640625 -13.351562 10.058594 -13.339844 C 9.433594 -13.101562 2.914062 -4.050781 2.21875 -2.960938 C 2.648438 -3.820312 3.128906 -4.5 3.46875 -5.316406 C 4.667969 -7.757812 4.675781 -7.492188 5.875 -9.933594 C 6.136719 -10.386719 6.308594 -10.617188 5.941406 -11.011719 L 5.851562 -11.097656 C 5.441406 -11.492188 4.851562 -11.703125 4.316406 -11.691406 C 3.644531 -11.679688 3.332031 -11.539062 3.078125 -10.90625 C 1.449219 -7.464844 0.925781 -6.871094 -0.25 -3.265625 C -0.667969 -1.867188 -0.425781 -1.019531 0.886719 -0.421875 C 1.113281 -0.335938 1.339844 -0.207031 1.472656 -0.210938 C 1.742188 -0.214844 1.871094 -0.398438 2.042969 -0.714844 C 4.035156 -3.894531 6.300781 -6.898438 8.609375 -9.859375 C 7.707031 -8.183594 4.933594 -1.675781 8.039062 -1.070312 C 8.171875 -1.027344 8.261719 -1.03125 8.398438 -1.03125 C 10.949219 -1.085938 14.554688 -6.179688 15.859375 -8.136719 C 16.074219 -8.542969 16.335938 -8.863281 16.464844 -9.089844 C 16.367188 -9.402344 16.140625 -9.574219 16.003906 -9.570312 C 15.960938 -9.570312 15.917969 -9.523438 15.917969 -9.523438 C 15.832031 -9.390625 15.265625 -8.660156 14.613281 -7.707031 L 14.527344 -7.570312 L 14.484375 -7.523438 C 13.304688 -6.019531 11.3125 -2.976562 9.570312 -2.671875 C 7.605469 -2.402344 11.425781 -10.101562 11.894531 -11.230469 L 11.9375 -11.363281 C 12.148438 -11.90625 12.136719 -12.398438 11.683594 -12.746094 Z M 11.683594 -12.746094 "/></g></g></g><g fill="#000000" fill-opacity="1"><g transform="translate(171.363809, 51.679059)"><g><path d="M -1.667969 -15.058594 L -1.578125 -15.058594 C 0.609375 -15.328125 2.796875 -15.601562 5.035156 -15.785156 C 2.722656 -10.851562 0.226562 -3.945312 -0.46875 -0.886719 C -0.757812 0.152344 -1.054688 2.933594 0.554688 2.945312 C 1.085938 -1.636719 5.101562 -10.636719 8.164062 -16.03125 C 10.085938 -16.160156 11.964844 -16.335938 13.796875 -16.511719 C 15 -16.671875 15.449219 -18.695312 14.511719 -18.632812 C 12.859375 -18.371094 11.074219 -18.0625 9.289062 -17.847656 C 9.894531 -18.84375 10.460938 -19.574219 10.898438 -19.984375 C 11.335938 -20.445312 10.640625 -21.59375 9.34375 -21.566406 C 9.074219 -21.558594 8.804688 -21.507812 8.449219 -21.367188 C 7.875 -21.128906 6.878906 -19.496094 5.71875 -17.277344 L -1.734375 -16.085938 C -2.226562 -15.984375 -2.117188 -15.046875 -1.667969 -15.058594 Z M -1.667969 -15.058594 "/></g></g></g><g fill="#000000" fill-opacity="1"><g transform="translate(175.258109, 51.594927)"><g><path d="M 6.214844 -2.507812 C 6.203125 -3.089844 5.652344 -3.703125 4.757812 -3.6875 C 3.863281 -3.667969 2.867188 -2.03125 2.878906 -1.40625 C 2.898438 -0.511719 3.445312 -0.0742188 4.386719 -0.09375 C 5.328125 -0.113281 6.238281 -1.476562 6.214844 -2.507812 Z M 6.214844 -2.507812 "/></g></g></g><path fill="#999999" d="M 53.195312 58.953125 L 188.066406 58.953125 C 188.660156 58.953125 189.140625 59.433594 189.140625 60.027344 L 189.140625 63.523438 C 189.140625 64.117188 188.660156 64.597656 188.066406 64.597656 L 53.195312 64.597656 C 52.605469 64.597656 52.125 64.117188 52.125 63.523438 L 52.125 60.027344 C 52.125 59.433594 52.605469 58.953125 53.195312 58.953125 " fill-opacity="0.2" fill-rule="nonzero"/><g fill="#000000" fill-opacity="1"><g transform="translate(52.880355, 63.334488)"><g><path d="M 3.269531 -0.972656 L 2.910156 -0.972656 C 2.796875 -0.765625 2.640625 -0.597656 2.445312 -0.476562 C 2.25 -0.351562 2.03125 -0.289062 1.796875 -0.289062 C 1.445312 -0.289062 1.144531 -0.417969 0.898438 -0.679688 C 0.65625 -0.925781 0.539062 -1.230469 0.539062 -1.585938 C 0.539062 -1.941406 0.65625 -2.246094 0.898438 -2.496094 C 1.011719 -2.613281 1.144531 -2.707031 1.300781 -2.777344 C 1.449219 -2.847656 1.597656 -2.886719 1.75 -2.886719 C 1.894531 -2.886719 2.019531 -2.867188 2.132812 -2.835938 C 2.472656 -2.730469 2.730469 -2.527344 2.90625 -2.210938 L 3.265625 -2.210938 C 3.144531 -2.511719 2.953125 -2.753906 2.683594 -2.941406 C 2.414062 -3.128906 2.117188 -3.222656 1.796875 -3.222656 C 1.351562 -3.222656 0.976562 -3.058594 0.667969 -2.734375 C 0.523438 -2.585938 0.410156 -2.410156 0.332031 -2.210938 C 0.246094 -2.015625 0.210938 -1.804688 0.210938 -1.585938 C 0.210938 -1.136719 0.359375 -0.757812 0.667969 -0.441406 C 0.976562 -0.113281 1.351562 0.046875 1.796875 0.046875 C 2.117188 0.046875 2.414062 -0.046875 2.6875 -0.234375 C 2.957031 -0.421875 3.148438 -0.664062 3.269531 -0.972656 Z M 3.269531 -0.972656 "/></g></g></g><g fill="#000000" fill-opacity="1"><g transform="translate(57.445267, 63.334488)"><g><path d="M 2.652344 -1.050781 L 2.652344 -3.179688 L 2.324219 -3.179688 L 2.324219 -1.003906 C 2.324219 -0.875 2.300781 -0.765625 2.253906 -0.679688 C 2.117188 -0.417969 1.855469 -0.285156 1.46875 -0.285156 C 1.214844 -0.285156 1.015625 -0.339844 0.867188 -0.453125 C 0.691406 -0.578125 0.609375 -0.761719 0.609375 -1.003906 L 0.609375 -3.179688 L 0.28125 -3.179688 L 0.28125 -1.050781 C 0.28125 -0.707031 0.394531 -0.433594 0.617188 -0.238281 C 0.828125 -0.0507812 1.113281 0.0429688 1.46875 0.0429688 C 1.820312 0.0429688 2.101562 -0.0507812 2.316406 -0.238281 C 2.539062 -0.433594 2.652344 -0.707031 2.652344 -1.050781 Z M 2.652344 -1.050781 "/></g></g></g><g fill="#000000" fill-opacity="1"><g transform="translate(61.533108, 63.334488)"><g><path d="M 1.230469 -1.496094 C 1.640625 -1.398438 1.921875 -1.289062 2.070312 -1.167969 C 2.175781 -1.085938 2.226562 -0.976562 2.226562 -0.847656 C 2.226562 -0.714844 2.199219 -0.609375 2.140625 -0.53125 C 2 -0.335938 1.75 -0.238281 1.394531 -0.238281 C 0.898438 -0.238281 0.617188 -0.40625 0.554688 -0.742188 L 0.171875 -0.742188 C 0.285156 -0.207031 0.691406 0.0625 1.394531 0.0625 C 1.707031 0.0625 1.96875 -0.00390625 2.179688 -0.144531 C 2.433594 -0.308594 2.5625 -0.550781 2.5625 -0.871094 C 2.5625 -1.132812 2.460938 -1.332031 2.253906 -1.472656 C 2.109375 -1.578125 1.875 -1.667969 1.554688 -1.753906 C 1.226562 -1.839844 1.015625 -1.910156 0.917969 -1.960938 C 0.703125 -2.066406 0.59375 -2.21875 0.597656 -2.414062 C 0.597656 -2.515625 0.617188 -2.605469 0.664062 -2.671875 C 0.785156 -2.851562 1 -2.945312 1.308594 -2.945312 C 1.746094 -2.945312 1.992188 -2.804688 2.058594 -2.535156 L 2.414062 -2.535156 C 2.296875 -2.992188 1.925781 -3.226562 1.308594 -3.226562 C 1.027344 -3.226562 0.78125 -3.152344 0.574219 -3.003906 C 0.363281 -2.851562 0.257812 -2.632812 0.257812 -2.332031 C 0.257812 -1.925781 0.585938 -1.644531 1.230469 -1.496094 Z M 1.230469 -1.496094 "/></g></g></g><g fill="#000000" fill-opacity="1"><g transform="translate(65.37306, 63.334488)"><g><path d="M 0.09375 -2.886719 L 0.867188 -2.886719 L 0.867188 -0.0078125 L 1.191406 -0.0078125 L 1.191406 -2.886719 L 1.964844 -2.886719 L 1.964844 -3.191406 L 0.09375 -3.191406 Z M 0.09375 -2.886719 "/></g></g></g><g fill="#000000" fill-opacity="1"><g transform="translate(68.586278, 63.334488)"><g><path d="M 3.152344 -1.597656 C 3.152344 -1.234375 3.019531 -0.925781 2.769531 -0.671875 C 2.511719 -0.417969 2.203125 -0.289062 1.84375 -0.289062 C 1.484375 -0.289062 1.175781 -0.417969 0.921875 -0.671875 C 0.664062 -0.925781 0.539062 -1.234375 0.539062 -1.597656 C 0.539062 -1.953125 0.664062 -2.265625 0.921875 -2.519531 C 1.175781 -2.773438 1.484375 -2.90625 1.84375 -2.90625 C 2.203125 -2.90625 2.511719 -2.773438 2.769531 -2.519531 C 3.019531 -2.265625 3.152344 -1.953125 3.152344 -1.597656 Z M 3.480469 -1.597656 C 3.480469 -1.824219 3.433594 -2.035156 3.347656 -2.234375 C 3.265625 -2.433594 3.148438 -2.605469 2.996094 -2.753906 C 2.847656 -2.898438 2.675781 -3.015625 2.480469 -3.101562 C 2.277344 -3.183594 2.066406 -3.230469 1.84375 -3.230469 C 1.617188 -3.230469 1.402344 -3.183594 1.207031 -3.101562 C 1.011719 -3.015625 0.835938 -2.898438 0.6875 -2.753906 C 0.539062 -2.605469 0.421875 -2.433594 0.335938 -2.234375 C 0.253906 -2.035156 0.210938 -1.824219 0.210938 -1.597656 C 0.210938 -1.375 0.253906 -1.160156 0.335938 -0.964844 C 0.421875 -0.761719 0.539062 -0.589844 0.6875 -0.441406 C 0.835938 -0.289062 1.011719 -0.171875 1.207031 -0.0898438 C 1.402344 -0.00390625 1.617188 0.0390625 1.84375 0.0390625 C 2.066406 0.0390625 2.277344 -0.00390625 2.480469 -0.0898438 C 2.675781 -0.171875 2.847656 -0.289062 2.996094 -0.441406 C 3.148438 -0.589844 3.265625 -0.761719 3.347656 -0.964844 C 3.433594 -1.160156 3.480469 -1.375 3.480469 -1.597656 Z M 3.480469 -1.597656 "/></g></g></g><g fill="#000000" fill-opacity="1"><g transform="translate(73.431818, 63.334488)"><g><path d="M 3.285156 0 L 3.617188 0 L 2.875 -3.390625 L 1.832031 -0.667969 L 0.789062 -3.390625 L 0.046875 0 L 0.382812 0 L 0.875 -2.265625 L 1.832031 0.1875 L 2.789062 -2.265625 Z M 3.285156 0 "/></g></g></g><g fill="#000000" fill-opacity="1"><g transform="translate(78.249297, 63.334488)"><g/></g></g><g fill="#000000" fill-opacity="1"><g transform="translate(80.667396, 63.334488)"><g><path d="M 3.269531 -0.972656 L 2.910156 -0.972656 C 2.796875 -0.765625 2.640625 -0.597656 2.445312 -0.476562 C 2.25 -0.351562 2.03125 -0.289062 1.796875 -0.289062 C 1.445312 -0.289062 1.144531 -0.417969 0.898438 -0.679688 C 0.65625 -0.925781 0.539062 -1.230469 0.539062 -1.585938 C 0.539062 -1.941406 0.65625 -2.246094 0.898438 -2.496094 C 1.011719 -2.613281 1.144531 -2.707031 1.300781 -2.777344 C 1.449219 -2.847656 1.597656 -2.886719 1.75 -2.886719 C 1.894531 -2.886719 2.019531 -2.867188 2.132812 -2.835938 C 2.472656 -2.730469 2.730469 -2.527344 2.90625 -2.210938 L 3.265625 -2.210938 C 3.144531 -2.511719 2.953125 -2.753906 2.683594 -2.941406 C 2.414062 -3.128906 2.117188 -3.222656 1.796875 -3.222656 C 1.351562 -3.222656 0.976562 -3.058594 0.667969 -2.734375 C 0.523438 -2.585938 0.410156 -2.410156 0.332031 -2.210938 C 0.246094 -2.015625 0.210938 -1.804688 0.210938 -1.585938 C 0.210938 -1.136719 0.359375 -0.757812 0.667969 -0.441406 C 0.976562 -0.113281 1.351562 0.046875 1.796875 0.046875 C 2.117188 0.046875 2.414062 -0.046875 2.6875 -0.234375 C 2.957031 -0.421875 3.148438 -0.664062 3.269531 -0.972656 Z M 3.269531 -0.972656 "/></g></g></g><g fill="#000000" fill-opacity="1"><g transform="translate(85.232308, 63.334488)"><g><path d="M 0.679688 0 L 0.679688 -3.179688 L 0.351562 -3.179688 L 0.351562 0 Z M 0.679688 0 "/></g></g></g><g fill="#000000" fill-opacity="1"><g transform="translate(87.416549, 63.334488)"><g><path d="M 0.679688 -2.34375 L 2.464844 0.195312 L 2.464844 -3.179688 L 2.136719 -3.179688 L 2.136719 -0.84375 L 0.351562 -3.382812 L 0.351562 0 L 0.679688 0 Z M 0.679688 -2.34375 "/></g></g></g><g fill="#000000" fill-opacity="1"><g transform="translate(91.38746, 63.334488)"><g><path d="M 2.242188 0 L 2.242188 -0.304688 L 0.679688 -0.304688 L 0.679688 -1.4375 L 2.195312 -1.4375 L 2.195312 -1.746094 L 0.679688 -1.746094 L 0.679688 -2.875 L 2.242188 -2.875 L 2.242188 -3.179688 L 0.351562 -3.179688 L 0.351562 0 Z M 2.242188 0 "/></g></g></g><g fill="#000000" fill-opacity="1"><g transform="translate(95.133868, 63.334488)"><g><path d="M 3.285156 0 L 3.617188 0 L 2.875 -3.390625 L 1.832031 -0.667969 L 0.789062 -3.390625 L 0.046875 0 L 0.382812 0 L 0.875 -2.265625 L 1.832031 0.1875 L 2.789062 -2.265625 Z M 3.285156 0 "/></g></g></g><g fill="#000000" fill-opacity="1"><g transform="translate(99.951349, 63.334488)"><g><path d="M 0.867188 -1.167969 L 1.445312 -2.632812 L 2.019531 -1.167969 Z M 2.839844 0 L 1.445312 -3.398438 L 0.046875 0 L 0.402344 0 L 0.742188 -0.867188 L 2.140625 -0.867188 L 2.484375 0 Z M 2.839844 0 "/></g></g></g><g fill="#000000" fill-opacity="1"><g transform="translate(103.992418, 63.334488)"><g/></g></g><g fill="#000000" fill-opacity="1"><g transform="translate(106.410516, 63.334488)"><g><path d="M 3.285156 0 L 3.617188 0 L 2.875 -3.390625 L 1.832031 -0.667969 L 0.789062 -3.390625 L 0.046875 0 L 0.382812 0 L 0.875 -2.265625 L 1.832031 0.1875 L 2.789062 -2.265625 Z M 3.285156 0 "/></g></g></g><g fill="#000000" fill-opacity="1"><g transform="translate(111.227997, 63.334488)"><g><path d="M 0.867188 -1.167969 L 1.445312 -2.632812 L 2.019531 -1.167969 Z M 2.839844 0 L 1.445312 -3.398438 L 0.046875 0 L 0.402344 0 L 0.742188 -0.867188 L 2.140625 -0.867188 L 2.484375 0 Z M 2.839844 0 "/></g></g></g><g fill="#000000" fill-opacity="1"><g transform="translate(115.269069, 63.334488)"><g><path d="M 0.679688 -2.34375 L 2.464844 0.195312 L 2.464844 -3.179688 L 2.136719 -3.179688 L 2.136719 -0.84375 L 0.351562 -3.382812 L 0.351562 0 L 0.679688 0 Z M 0.679688 -2.34375 "/></g></g></g><g fill="#000000" fill-opacity="1"><g transform="translate(119.23998, 63.334488)"><g><path d="M 0.867188 -1.167969 L 1.445312 -2.632812 L 2.019531 -1.167969 Z M 2.839844 0 L 1.445312 -3.398438 L 0.046875 0 L 0.402344 0 L 0.742188 -0.867188 L 2.140625 -0.867188 L 2.484375 0 Z M 2.839844 0 "/></g></g></g><g fill="#000000" fill-opacity="1"><g transform="translate(123.281052, 63.334488)"><g><path d="M 3.488281 -1.488281 L 1.832031 -1.488281 L 1.832031 -1.203125 L 3.125 -1.203125 C 3.027344 -0.925781 2.863281 -0.703125 2.628906 -0.539062 C 2.394531 -0.371094 2.132812 -0.289062 1.847656 -0.289062 C 1.484375 -0.289062 1.175781 -0.417969 0.917969 -0.671875 C 0.664062 -0.929688 0.539062 -1.242188 0.539062 -1.605469 C 0.539062 -1.964844 0.664062 -2.273438 0.921875 -2.53125 C 1.175781 -2.78125 1.484375 -2.914062 1.847656 -2.914062 C 2.117188 -2.914062 2.367188 -2.835938 2.585938 -2.679688 C 2.8125 -2.527344 2.96875 -2.324219 3.074219 -2.066406 L 3.417969 -2.066406 C 3.3125 -2.417969 3.109375 -2.699219 2.820312 -2.914062 C 2.53125 -3.128906 2.195312 -3.242188 1.816406 -3.242188 C 1.609375 -3.242188 1.40625 -3.195312 1.210938 -3.109375 C 1.011719 -3.027344 0.835938 -2.910156 0.6875 -2.757812 C 0.539062 -2.609375 0.421875 -2.4375 0.335938 -2.242188 C 0.253906 -2.039062 0.210938 -1.824219 0.210938 -1.597656 C 0.210938 -1.375 0.253906 -1.160156 0.335938 -0.964844 C 0.421875 -0.761719 0.539062 -0.589844 0.6875 -0.441406 C 0.835938 -0.289062 1.011719 -0.171875 1.210938 -0.0898438 C 1.40625 -0.00390625 1.621094 0.0390625 1.847656 0.0390625 C 2.230469 0.0390625 2.578125 -0.0859375 2.886719 -0.332031 C 3.195312 -0.585938 3.386719 -0.902344 3.457031 -1.289062 Z M 3.488281 -1.488281 "/></g></g></g><g fill="#000000" fill-opacity="1"><g transform="translate(128.135947, 63.334488)"><g><path d="M 2.242188 0 L 2.242188 -0.304688 L 0.679688 -0.304688 L 0.679688 -1.4375 L 2.195312 -1.4375 L 2.195312 -1.746094 L 0.679688 -1.746094 L 0.679688 -2.875 L 2.242188 -2.875 L 2.242188 -3.179688 L 0.351562 -3.179688 L 0.351562 0 Z M 2.242188 0 "/></g></g></g><g fill="#000000" fill-opacity="1"><g transform="translate(131.882355, 63.334488)"><g><path d="M 3.285156 0 L 3.617188 0 L 2.875 -3.390625 L 1.832031 -0.667969 L 0.789062 -3.390625 L 0.046875 0 L 0.382812 0 L 0.875 -2.265625 L 1.832031 0.1875 L 2.789062 -2.265625 Z M 3.285156 0 "/></g></g></g><g fill="#000000" fill-opacity="1"><g transform="translate(136.699836, 63.334488)"><g><path d="M 2.242188 0 L 2.242188 -0.304688 L 0.679688 -0.304688 L 0.679688 -1.4375 L 2.195312 -1.4375 L 2.195312 -1.746094 L 0.679688 -1.746094 L 0.679688 -2.875 L 2.242188 -2.875 L 2.242188 -3.179688 L 0.351562 -3.179688 L 0.351562 0 Z M 2.242188 0 "/></g></g></g><g fill="#000000" fill-opacity="1"><g transform="translate(140.446245, 63.334488)"><g><path d="M 0.679688 -2.34375 L 2.464844 0.195312 L 2.464844 -3.179688 L 2.136719 -3.179688 L 2.136719 -0.84375 L 0.351562 -3.382812 L 0.351562 0 L 0.679688 0 Z M 0.679688 -2.34375 "/></g></g></g><g fill="#000000" fill-opacity="1"><g transform="translate(144.417156, 63.334488)"><g><path d="M 0.09375 -2.886719 L 0.867188 -2.886719 L 0.867188 -0.0078125 L 1.191406 -0.0078125 L 1.191406 -2.886719 L 1.964844 -2.886719 L 1.964844 -3.191406 L 0.09375 -3.191406 Z M 0.09375 -2.886719 "/></g></g></g><g fill="#000000" fill-opacity="1"><g transform="translate(147.630374, 63.334488)"><g/></g></g><g fill="#000000" fill-opacity="1"><g transform="translate(150.048473, 63.334488)"><g><path d="M 0.867188 -1.167969 L 1.445312 -2.632812 L 2.019531 -1.167969 Z M 2.839844 0 L 1.445312 -3.398438 L 0.046875 0 L 0.402344 0 L 0.742188 -0.867188 L 2.140625 -0.867188 L 2.484375 0 Z M 2.839844 0 "/></g></g></g><g fill="#000000" fill-opacity="1"><g transform="translate(154.089544, 63.334488)"><g><path d="M 0.679688 -1.578125 L 0.679688 -2.867188 L 1.417969 -2.867188 C 1.609375 -2.867188 1.761719 -2.804688 1.878906 -2.6875 C 1.992188 -2.566406 2.054688 -2.417969 2.054688 -2.230469 C 2.054688 -2.039062 1.992188 -1.886719 1.871094 -1.757812 C 1.75 -1.636719 1.597656 -1.578125 1.417969 -1.578125 Z M 2.378906 -2.222656 C 2.378906 -2.503906 2.277344 -2.730469 2.082031 -2.914062 C 1.886719 -3.089844 1.652344 -3.179688 1.371094 -3.179688 L 0.351562 -3.179688 L 0.351562 0 L 0.679688 0 L 0.679688 -1.257812 L 1.371094 -1.257812 C 1.652344 -1.257812 1.890625 -1.347656 2.082031 -1.523438 C 2.277344 -1.710938 2.378906 -1.941406 2.378906 -2.222656 Z M 2.378906 -2.222656 "/></g></g></g><g fill="#000000" fill-opacity="1"><g transform="translate(157.719017, 63.334488)"><g><path d="M 0.679688 -1.578125 L 0.679688 -2.867188 L 1.417969 -2.867188 C 1.609375 -2.867188 1.761719 -2.804688 1.878906 -2.6875 C 1.992188 -2.566406 2.054688 -2.417969 2.054688 -2.230469 C 2.054688 -2.039062 1.992188 -1.886719 1.871094 -1.757812 C 1.75 -1.636719 1.597656 -1.578125 1.417969 -1.578125 Z M 2.378906 -2.222656 C 2.378906 -2.503906 2.277344 -2.730469 2.082031 -2.914062 C 1.886719 -3.089844 1.652344 -3.179688 1.371094 -3.179688 L 0.351562 -3.179688 L 0.351562 0 L 0.679688 0 L 0.679688 -1.257812 L 1.371094 -1.257812 C 1.652344 -1.257812 1.890625 -1.347656 2.082031 -1.523438 C 2.277344 -1.710938 2.378906 -1.941406 2.378906 -2.222656 Z M 2.378906 -2.222656 "/></g></g></g><g fill="#000000" fill-opacity="1"><g transform="translate(161.34849, 63.334488)"><g><path d="M 0.679688 -0.328125 L 0.679688 -3.179688 L 0.351562 -3.179688 L 0.351562 0 L 1.816406 0 L 1.816406 -0.328125 Z M 0.679688 -0.328125 "/></g></g></g><g fill="#000000" fill-opacity="1"><g transform="translate(164.412034, 63.334488)"><g><path d="M 0.679688 0 L 0.679688 -3.179688 L 0.351562 -3.179688 L 0.351562 0 Z M 0.679688 0 "/></g></g></g><g fill="#000000" fill-opacity="1"><g transform="translate(166.596274, 63.334488)"><g><path d="M 3.269531 -0.972656 L 2.910156 -0.972656 C 2.796875 -0.765625 2.640625 -0.597656 2.445312 -0.476562 C 2.25 -0.351562 2.03125 -0.289062 1.796875 -0.289062 C 1.445312 -0.289062 1.144531 -0.417969 0.898438 -0.679688 C 0.65625 -0.925781 0.539062 -1.230469 0.539062 -1.585938 C 0.539062 -1.941406 0.65625 -2.246094 0.898438 -2.496094 C 1.011719 -2.613281 1.144531 -2.707031 1.300781 -2.777344 C 1.449219 -2.847656 1.597656 -2.886719 1.75 -2.886719 C 1.894531 -2.886719 2.019531 -2.867188 2.132812 -2.835938 C 2.472656 -2.730469 2.730469 -2.527344 2.90625 -2.210938 L 3.265625 -2.210938 C 3.144531 -2.511719 2.953125 -2.753906 2.683594 -2.941406 C 2.414062 -3.128906 2.117188 -3.222656 1.796875 -3.222656 C 1.351562 -3.222656 0.976562 -3.058594 0.667969 -2.734375 C 0.523438 -2.585938 0.410156 -2.410156 0.332031 -2.210938 C 0.246094 -2.015625 0.210938 -1.804688 0.210938 -1.585938 C 0.210938 -1.136719 0.359375 -0.757812 0.667969 -0.441406 C 0.976562 -0.113281 1.351562 0.046875 1.796875 0.046875 C 2.117188 0.046875 2.414062 -0.046875 2.6875 -0.234375 C 2.957031 -0.421875 3.148438 -0.664062 3.269531 -0.972656 Z M 3.269531 -0.972656 "/></g></g></g><g fill="#000000" fill-opacity="1"><g transform="translate(171.16118, 63.334488)"><g><path d="M 0.867188 -1.167969 L 1.445312 -2.632812 L 2.019531 -1.167969 Z M 2.839844 0 L 1.445312 -3.398438 L 0.046875 0 L 0.402344 0 L 0.742188 -0.867188 L 2.140625 -0.867188 L 2.484375 0 Z M 2.839844 0 "/></g></g></g><g fill="#000000" fill-opacity="1"><g transform="translate(175.202252, 63.334488)"><g><path d="M 0.09375 -2.886719 L 0.867188 -2.886719 L 0.867188 -0.0078125 L 1.191406 -0.0078125 L 1.191406 -2.886719 L 1.964844 -2.886719 L 1.964844 -3.191406 L 0.09375 -3.191406 Z M 0.09375 -2.886719 "/></g></g></g><g fill="#000000" fill-opacity="1"><g transform="translate(178.415464, 63.334488)"><g><path d="M 0.679688 0 L 0.679688 -3.179688 L 0.351562 -3.179688 L 0.351562 0 Z M 0.679688 0 "/></g></g></g><g fill="#000000" fill-opacity="1"><g transform="translate(180.599704, 63.334488)"><g><path d="M 3.152344 -1.597656 C 3.152344 -1.234375 3.019531 -0.925781 2.769531 -0.671875 C 2.511719 -0.417969 2.203125 -0.289062 1.84375 -0.289062 C 1.484375 -0.289062 1.175781 -0.417969 0.921875 -0.671875 C 0.664062 -0.925781 0.539062 -1.234375 0.539062 -1.597656 C 0.539062 -1.953125 0.664062 -2.265625 0.921875 -2.519531 C 1.175781 -2.773438 1.484375 -2.90625 1.84375 -2.90625 C 2.203125 -2.90625 2.511719 -2.773438 2.769531 -2.519531 C 3.019531 -2.265625 3.152344 -1.953125 3.152344 -1.597656 Z M 3.480469 -1.597656 C 3.480469 -1.824219 3.433594 -2.035156 3.347656 -2.234375 C 3.265625 -2.433594 3.148438 -2.605469 2.996094 -2.753906 C 2.847656 -2.898438 2.675781 -3.015625 2.480469 -3.101562 C 2.277344 -3.183594 2.066406 -3.230469 1.84375 -3.230469 C 1.617188 -3.230469 1.402344 -3.183594 1.207031 -3.101562 C 1.011719 -3.015625 0.835938 -2.898438 0.6875 -2.753906 C 0.539062 -2.605469 0.421875 -2.433594 0.335938 -2.234375 C 0.253906 -2.035156 0.210938 -1.824219 0.210938 -1.597656 C 0.210938 -1.375 0.253906 -1.160156 0.335938 -0.964844 C 0.421875 -0.761719 0.539062 -0.589844 0.6875 -0.441406 C 0.835938 -0.289062 1.011719 -0.171875 1.207031 -0.0898438 C 1.402344 -0.00390625 1.617188 0.0390625 1.84375 0.0390625 C 2.066406 0.0390625 2.277344 -0.00390625 2.480469 -0.0898438 C 2.675781 -0.171875 2.847656 -0.289062 2.996094 -0.441406 C 3.148438 -0.589844 3.265625 -0.761719 3.347656 -0.964844 C 3.433594 -1.160156 3.480469 -1.375 3.480469 -1.597656 Z M 3.480469 -1.597656 "/></g></g></g><g fill="#000000" fill-opacity="1"><g transform="translate(185.445238, 63.334488)"><g><path d="M 0.679688 -2.34375 L 2.464844 0.195312 L 2.464844 -3.179688 L 2.136719 -3.179688 L 2.136719 -0.84375 L 0.351562 -3.382812 L 0.351562 0 L 0.679688 0 Z M 0.679688 -2.34375 "/></g></g></g><g clip-path="url(#id1)"><path fill="#000000" d="M 47.246094 36.660156 L 45.425781 36.660156 L 45.425781 6.082031 C 45.425781 5.246094 44.746094 4.566406 43.910156 4.566406 C 43.074219 4.566406 42.394531 5.246094 42.394531 6.082031 L 42.394531 8.484375 C 42.078125 8.710938 40.890625 9.359375 37.207031 9.878906 C 34.246094 10.296875 30.421875 10.527344 26.441406 10.527344 C 22.460938 10.527344 18.640625 10.296875 15.679688 9.878906 C 11.992188 9.359375 10.808594 8.710938 10.488281 8.484375 L 10.488281 6.082031 C 10.488281 5.246094 9.8125 4.566406 8.972656 4.566406 C 8.136719 4.566406 7.457031 5.246094 7.457031 6.082031 L 7.457031 36.660156 L 6.082031 36.660156 C 5.246094 36.660156 4.566406 37.335938 4.566406 38.171875 L 4.566406 43.929688 C 4.566406 44.765625 5.246094 45.445312 6.082031 45.445312 L 8.59375 45.445312 L 23.570312 53.472656 L 8.257812 61.679688 C 7.519531 62.078125 7.242188 62.996094 7.636719 63.730469 C 7.910156 64.242188 8.433594 64.53125 8.976562 64.53125 C 9.214844 64.53125 9.460938 64.472656 9.691406 64.351562 L 26.777344 55.191406 L 43.863281 64.351562 C 44.089844 64.472656 44.335938 64.53125 44.578125 64.53125 C 45.117188 64.53125 45.640625 64.242188 45.914062 63.730469 C 46.308594 62.996094 46.03125 62.078125 45.292969 61.679688 L 29.984375 53.472656 L 44.957031 45.445312 L 47.246094 45.445312 C 48.082031 45.445312 48.761719 44.765625 48.761719 43.929688 L 48.761719 38.171875 C 48.761719 37.335938 48.082031 36.660156 47.246094 36.660156 Z M 45.730469 42.414062 L 44.589844 42.414062 C 44.585938 42.414062 44.582031 42.414062 44.578125 42.414062 L 8.972656 42.414062 C 8.96875 42.414062 8.964844 42.414062 8.960938 42.414062 L 7.597656 42.414062 L 7.597656 39.6875 L 45.730469 39.6875 Z M 26.441406 13.558594 C 31.101562 13.558594 35.453125 13.257812 38.703125 12.714844 C 39.945312 12.503906 41.261719 12.234375 42.394531 11.824219 L 42.394531 21.171875 C 42.222656 21.363281 41.277344 22.171875 37.339844 22.847656 C 34.363281 23.355469 30.496094 23.632812 26.441406 23.632812 C 22.390625 23.632812 18.519531 23.355469 15.546875 22.847656 C 11.609375 22.171875 10.664062 21.363281 10.488281 21.171875 L 10.488281 11.824219 C 11.625 12.234375 12.941406 12.503906 14.183594 12.714844 C 17.429688 13.257812 21.785156 13.558594 26.441406 13.558594 Z M 10.488281 24.648438 C 11.648438 25.125 12.972656 25.4375 14.140625 25.667969 C 17.402344 26.308594 21.769531 26.664062 26.441406 26.664062 C 31.113281 26.664062 35.484375 26.308594 38.746094 25.667969 C 39.910156 25.4375 41.234375 25.125 42.394531 24.648438 L 42.394531 36.660156 L 10.488281 36.660156 Z M 26.777344 51.753906 L 15.007812 45.445312 L 38.542969 45.445312 Z M 26.777344 51.753906 " fill-opacity="1" fill-rule="nonzero"/></g><path fill="#5b5959" d="M 7.597656 40.679688 L 7.597656 42.414062 L 8.960938 42.414062 C 8.964844 42.414062 8.96875 42.414062 8.972656 42.414062 L 44.578125 42.414062 C 44.582031 42.414062 44.585938 42.414062 44.589844 42.414062 L 45.730469 42.414062 L 45.730469 40.679688 Z M 7.597656 40.679688 " fill-opacity="1" fill-rule="nonzero"/><path fill="#5b5959" d="M 38.703125 14.140625 C 35.453125 14.683594 31.101562 14.984375 26.441406 14.984375 C 21.785156 14.984375 17.429688 14.683594 14.183594 14.140625 C 12.941406 13.933594 11.625 13.660156 10.488281 13.25 L 10.488281 21.171875 C 10.664062 21.363281 11.609375 22.171875 15.546875 22.847656 C 18.519531 23.355469 22.390625 23.632812 26.441406 23.632812 C 30.496094 23.632812 34.363281 23.355469 37.339844 22.847656 C 41.277344 22.171875 42.222656 21.363281 42.394531 21.171875 L 42.394531 13.25 C 41.261719 13.660156 39.945312 13.933594 38.703125 14.140625 Z M 38.703125 14.140625 " fill-opacity="1" fill-rule="nonzero"/></svg>